# xmcd
#
# Track frame offsets: 
#        150
#        18367
#        36531
#        59968
#        81020
#        96744
#        115538
#        135504
#        150877
#        171342
#        189698
#        211861
#        226197
#        244152
#        261631
#        275480
#        297437
#        315320
#        332013
#
# Disc length: 4680 seconds
#
# Revision: 0
# Processed by: cddbd v1.5.2PL0 Copyright (c) Steve Scherf et al.
# Submitted via: ExactAudioCopy v1.1
#
DISCID=18124613
DTITLE=Various Artist - 50 Jaar Nederpop - CD 4 - 90's
DYEAR=2008
DGENRE=Pop
TTITLE0=Van Dik Hout - Stil In Mij
TTITLE1=Acda En De Munnik - Niet Of Nooit Geweest
TTITLE2=Marco Borsato - De Waarheid
TTITLE3=Guus Meeuwis and Vagant - Het Is Een Nacht... (Levensecht) (Live
TTITLE3=)
TTITLE4=De Dijk - Als Ze Er Niet Is
TTITLE5=Bløf - Harder Dan Ik Hebben Kan
TTITLE6=Ten Sharp - You
TTITLE7=Anouk - Nobody's Wife
TTITLE8=The Scene - Blauw
TTITLE9=City To City - The Road Ahead (Miles Of The Unknown)
TTITLE10=De Kast - In Nije Dei (Live)
TTITLE11=Stef Bos - Papa
TTITLE12=Skik - Op Fietse
TTITLE13=Fluitsma and Van Tijn - 15 Miljoen Mensen
TTITLE14=Rowwen Hèze - Bestel Mar
TTITLE15=IsOokSchitterend! - Voltooid Verleden Tijd (V.V.T.)
TTITLE16=Total Touch - Somebody Else's Lover
TTITLE17=Volumia! - Hou Me Vast
TTITLE18=Extince - Spraakwater
EXTD=
EXTT0=
EXTT1=
EXTT2=
EXTT3=
EXTT4=
EXTT5=
EXTT6=
EXTT7=
EXTT8=
EXTT9=
EXTT10=
EXTT11=
EXTT12=
EXTT13=
EXTT14=
EXTT15=
EXTT16=
EXTT17=
EXTT18=
PLAYORDER=
